<?xml version="1.0" encoding="utf-8"?>
<!-- Generator: Adobe Illustrator 23.1.1, SVG Export Plug-In . SVG Version: 6.00 Build 0)  -->
<svg version="1.1" id="Layer_1" xmlns="http://www.w3.org/2000/svg" xmlns:xlink="http://www.w3.org/1999/xlink" x="0px" y="0px"
	 viewBox="0 0 713.9 400" style="enable-background:new 0 0 713.9 400;" xml:space="preserve">
<style type="text/css">
	.st0{fill:#404040;}
	.st1{fill:url(#SVGID_1_);}
</style>
<title>OE Approved Logos</title>
<path class="st0" d="M602.1,270.9c-39.2,48.2-110,55.6-158.2,16.4c-16.8-13.6-29.3-31.8-36-52.3h48.4v-0.1h255.4
	c2-11.5,3-23.2,3-34.9c0-110.5-89.5-200-200-200s-200,89.5-200,200s89.5,200,200,200c83.1,0,157.5-51.4,187-129.1L602.1,270.9z
	 M514.7,87.5c48.7,0,91.8,31.3,106.9,77.5H407.8C422.9,118.8,466.1,87.5,514.7,87.5z"/>
<path class="st0" d="M202.2,0C91.8,0,2.2,89.5,2.2,200s89.5,200,200,200s200-89.5,200-200S312.7,0,202.2,0z M202.2,312.5
	c-62.1,0-112.5-50.4-112.5-112.5S140.1,87.5,202.2,87.5S314.7,137.9,314.7,200S264.4,312.5,202.2,312.5L202.2,312.5z"/>
<linearGradient id="SVGID_1_" gradientUnits="userSpaceOnUse" x1="158.3413" y1="944.8615" x2="559.0109" y2="814.6716" gradientTransform="matrix(1 0 0 1 0 -679.84)">
	<stop  offset="0.2" style="stop-color:#404040"/>
	<stop  offset="0.5" style="stop-color:#333333"/>
	<stop  offset="0.8" style="stop-color:#404040"/>
</linearGradient>
<path class="st1" d="M514.7,0c-110.5,0-200,89.5-200,200l0,0l0,0c0,62.1-50.4,112.5-112.5,112.5l0,0V400c110.5,0,200-89.5,200-200
	l0,0c0-62.1,50.4-112.5,112.5-112.5h0.5V0H514.7z"/>
</svg>
